<?xml version="1.0" encoding="UTF-8"?>
<svg width="1200pt" height="1200pt" version="1.1" viewBox="0 0 1200 1200" xmlns="http://www.w3.org/2000/svg">
 <g>
  <path d="m756.14 370.07c-6.0586-2.5938-13.152 0.16797-15.781 6.2539-2.6289 6.0859 0.16797 13.141 6.2539 15.781 104.46 45.203 180.06 135.06 208.91 241.52-19.523-14.578-43.078-48.516-56.941-74.426-0.046875-0.097657-0.14453-0.16797-0.19141-0.26562-0.19141-0.32422-0.44531-0.58984-0.66016-0.88672-0.5625-0.80469-1.1992-1.5234-1.9336-2.1484-0.40625-0.35938-0.81641-0.68359-1.2734-0.98438-0.76953-0.49219-1.5977-0.875-2.4492-1.1875-0.61328-0.22656-1.1992-0.40625-1.8477-0.53906-0.79297-0.15625-1.5859-0.32422-2.3867-0.32422-0.3125 0-0.60156 0.10938-0.91016 0.14453-0.21484 0.023438-0.40625-0.058593-0.625-0.035156l-79.117 11.305c-21.781-30.145-42.312-81.84-53.52-122.61-0.085938-0.30078-0.27734-0.53906-0.37109-0.82812-0.17969-0.50391-0.39453-0.94922-0.64844-1.4297-0.43359-0.83984-0.94922-1.5977-1.5586-2.3047-0.3125-0.37109-0.60156-0.73047-0.96094-1.0547-0.81641-0.75781-1.7383-1.3555-2.7461-1.8477-0.27734-0.13281-0.49219-0.33594-0.76953-0.44531-1.1992-0.49219-2.4844-0.81641-3.8281-0.88672-0.14453-0.011719-0.26562 0.035156-0.39453 0.035156-0.10938 0-0.19141-0.058594-0.28906-0.058594h-70.02c-27.613-40.559-56.125-114.45-72.539-172.14-1.5117-5.293-6.625-8.832-11.914-8.7109-5.4961 0.16797-10.176 4.0547-11.352 9.4336-7.9453 36.254-39.254 131.09-88.152 134.59-13.488 0.99609-24.91-0.52734-34.668-3.3945 0.28906-0.13281 0.57422-0.27734 0.86328-0.40625 6.0859-2.6406 8.8672-9.707 6.2383-15.781-2.6289-6.0859-9.7188-8.8672-15.781-6.2383-6.2148 2.6992-12.301 5.6289-18.336 8.6289-13.367-10.559-19.129-22.141-19.547-23.039-2.3633-5.1133-7.9805-7.8359-13.477-6.6719-5.5078 1.2344-9.4219 6.1094-9.4219 11.734v42.445c-109.78 72.938-175.31 194.94-175.31 326.63 0 136.07 69.73 256.12 175.31 326.41v0.50391h0.79297c61.945 41.027 136.13 65.004 215.82 65.004 216.1 0 391.92-175.81 391.92-391.92 0-156.45-92.785-297.7-236.39-359.86zm104.05 210.88c-5.6523 4.6914-12.48 8.3047-20.195 8.3047-3.875 0-7.8477-1.332-11.867-3.7188zm-140.23-124.09c-3.4922 3.4336-7.5703 6-11.965 6-4.6797 0-9.625-2.1602-14.723-6zm-487.27 273.07c0-118.19 56.305-228 151.31-297.28v431.35c0 6.6367 5.375 12 12 12h24v12.875l-36-0.011719v138.2c-91.633-66.98-151.31-175.2-151.31-297.14zm343.31 182.07v184.93c-61.285-4.0664-118.51-23.16-168-53.688v-131.25zm-132-23.125v-12.875h24v12.887zm48 0.023438v-12.898h24v12.91zm48 0.011718v-12.91h24v12.926zm48-0.96875v-11.09c0.94922 0 1.7891-0.33594 2.6641-0.53906l21.336 2.543v12.77l-18.422-2.1016c-1.6797-0.91016-3.5273-1.5703-5.5781-1.582zm12 209.89-0.058594-184.44 36.059 4.2344v178.49c-11.652 1.1172-23.449 1.7383-35.387 1.7383-0.20703-0.007812-0.41016-0.019531-0.61328-0.019531zm36-203.46v-12.648l24 2.8555v12.527zm108 35.918v138.47c-19.211 8.1602-39.289 14.629-60 19.453v-164.95zm-60-30.445v-12.395l24 2.8555v12.277zm216 24.625v-11.93l18.59 2.125c-2.1953 3.7578-4.4414 7.4766-6.7695 11.148zm-24-2.7383-96-10.945v-9.6953c1.7656-13.871 24.457-27.613 51.336-24.637 26.988 2.9883 45.504 20.09 44.664 33.707zm-84 14.184 60 7.0312v55.273c-18.359 17.207-38.426 32.617-60 45.816zm-36-27.863-24-2.7344v-12.156l24 2.8555zm174.84-16.125-36.625-4.1875c-10.234-18.059-32.832-32.113-60.254-35.148-26.27-2.8906-51.086 5.8203-65.449 20.797l-168.51-19.973v-457.41c0-6.625-5.375-12-12-12s-12 5.375-12 12v456h-168v-457.23c16.453 14.316 42.66 27.996 81.852 25.211 51.84-3.7305 83.23-69.898 98.52-114.17 21.828 65.879 67.477 181.04 119.63 181.04 12.59 0 22.512-6.4453 29.82-13.992 41.879 133.27 92.062 140.39 102.18 140.39 21.324 0 37.297-13.715 47.172-25.68 15.516 25.609 45.086 67.789 75.07 75.816 3.9844 21.719 6.2891 43.922 6.2891 66.539 0 58.117-13.594 113.09-37.691 162z"/>
  <path d="m528 492c6.6367 0 12-5.375 12-12v-12h-24v12c0 6.625 5.3633 12 12 12z"/>
  <path d="m492 468c6.6367 0 12-5.375 12-12v-12h-24v12c0 6.625 5.3633 12 12 12z"/>
  <path d="m540 552c0 6.625 5.3633 12 12 12s12-5.375 12-12v-12h-24z"/>
  <path d="m540 504c0 6.625 5.3633 12 12 12s12-5.375 12-12v-12h-24z"/>
  <path d="m648 516v-12h-24v12c0 6.625 5.3633 12 12 12s12-5.375 12-12z"/>
  <path d="m684 564c6.6367 0 12-5.375 12-12v-12h-24v12c0 6.625 5.3633 12 12 12z"/>
  <path d="m720 588c0 6.625 5.3633 12 12 12s12-5.375 12-12v-12h-24z"/>
  <path d="m720 636h-24v12c0 6.625 5.3633 12 12 12s12-5.375 12-12z"/>
  <path d="m672 708c0 6.625 5.3633 12 12 12s12-5.375 12-12v-12h-24z"/>
  <path d="m720 720c0 6.625 5.3633 12 12 12s12-5.375 12-12v-12h-24z"/>
  <path d="m636 600c0 6.625 5.3633 12 12 12s12-5.375 12-12v-12h-24z"/>
  <path d="m636 672c0 6.625 5.3633 12 12 12s12-5.375 12-12v-12h-24z"/>
  <path d="m636 768c0 6.625 5.3633 12 12 12s12-5.375 12-12v-12h-24z"/>
  <path d="m672 792c0 6.625 5.3633 12 12 12s12-5.375 12-12v-12h-24z"/>
  <path d="m528 624c0 6.625 5.3633 12 12 12s12-5.375 12-12v-12h-24z"/>
  <path d="m528 660h-24v12c0 6.625 5.3633 12 12 12s12-5.375 12-12z"/>
  <path d="m528 744c0 6.625 5.3633 12 12 12s12-5.375 12-12v-12h-24z"/>
  <path d="m492 792c0 6.625 5.3633 12 12 12s12-5.375 12-12v-12h-24z"/>
  <path d="m456 816c0 6.625 5.3633 12 12 12s12-5.375 12-12v-12h-24z"/>
  <path d="m456 732h-24v12c0 6.625 5.3633 12 12 12s12-5.375 12-12z"/>
  <path d="m456 768c0 6.625 5.3633 12 12 12s12-5.375 12-12v-12h-24z"/>
  <path d="m492 672h-24v12c0 6.625 5.3633 12 12 12s12-5.375 12-12z"/>
  <path d="m432 660c0 6.625 5.3633 12 12 12s12-5.375 12-12v-12h-24z"/>
  <path d="m456 720c0 6.625 5.3633 12 12 12s12-5.375 12-12v-12h-24z"/>
  <path d="m468 624c0 6.625 5.3633 12 12 12s12-5.375 12-12v-12h-24z"/>
  <path d="m456 588h-24v12c0 6.625 5.3633 12 12 12s12-5.375 12-12z"/>
  <path d="m492 576c0 6.625 5.3633 12 12 12s12-5.375 12-12v-12h-24z"/>
  <path d="m468 552c6.6367 0 12-5.375 12-12v-12h-24v12c0 6.625 5.3633 12 12 12z"/>
  <path d="m444 504v-12h-24v12c0 6.625 5.3633 12 12 12s12-5.375 12-12z"/>
  <path d="m876 696c0 13.246 10.754 24 24 24s24-10.754 24-24v-12h-48z"/>
  <path d="m876 780c0 13.246 10.754 24 24 24s24-10.754 24-24v-12h-48z"/>
  <path d="m804 804c0 13.246 10.754 24 24 24s24-10.754 24-24v-12h-48z"/>
  <path d="m468 1008h48c6.625 0 12-5.3633 12-12v-36c0-6.6367-5.375-12-12-12h-48c-6.625 0-12 5.3633-12 12v36c0 6.6367 5.375 12 12 12z"/>
 </g>
</svg>
