<?xml version="1.0" encoding="UTF-8" standalone="no"?>
<!-- Created with Inkscape (http://www.inkscape.org/) -->

<svg
   version="1.1"
   id="svg1721"
   width="5333.3335"
   height="5333.3335"
   viewBox="0 0 5333.3335 5333.3335"
   sodipodi:docname="vecteezy_hamburg-skyline-on-white-background_.svg"
   inkscape:version="1.2.2 (732a01da63, 2022-12-09)"
   xmlns:inkscape="http://www.inkscape.org/namespaces/inkscape"
   xmlns:sodipodi="http://sodipodi.sourceforge.net/DTD/sodipodi-0.dtd"
   xmlns="http://www.w3.org/2000/svg"
   xmlns:svg="http://www.w3.org/2000/svg">
  <defs
     id="defs1725" />
  <sodipodi:namedview
     id="namedview1723"
     pagecolor="#ffffff"
     bordercolor="#000000"
     borderopacity="0.25"
     inkscape:showpageshadow="2"
     inkscape:pageopacity="0.0"
     inkscape:pagecheckerboard="0"
     inkscape:deskcolor="#d1d1d1"
     showgrid="false"
     inkscape:zoom="0.1569375"
     inkscape:cx="2663.4808"
     inkscape:cy="2669.8527"
     inkscape:window-width="1920"
     inkscape:window-height="1017"
     inkscape:window-x="-8"
     inkscape:window-y="-8"
     inkscape:window-maximized="1"
     inkscape:current-layer="g1729">
    <inkscape:page
       x="0"
       y="0"
       id="page1727"
       width="5333.3335"
       height="5333.3335" />
  </sodipodi:namedview>
  <g
     id="g1729"
     inkscape:groupmode="layer"
     inkscape:label="Page 1"
     transform="matrix(1.3333333,0,0,-1.3333333,0,5333.3333)">
    <g
       id="g1731"
       transform="scale(0.1)">
      <path
         d="M 40000,0 H 0 V 40000 H 40000 V 0"
         style="fill:#ffffff;fill-opacity:1;fill-rule:nonzero;stroke:none"
         id="path1733" />
      <path
         d="m 37115.2,17355.5 v 637.8 h -474.6 v 3574.3 h -2387.8 v -3574.3 h -207.7 v 326.3 h -207.6 v 4479 h -2714.1 v -4479 h -148.3 v -667.4 h -118.7 v 2521.3 l -281.8,322.5 v 419 l -207.6,222.5 v 578.4 h -148.3 v -578.4 l -192.8,-207.7 V 20496 l -296.6,-352.2 v -786.1 H 29492 l -548.8,978.9 -548.7,-978.9 h -237.3 v 786.1 l -296.7,352.2 v 433.8 l -192.8,207.7 v 578.4 h -148.3 v -578.4 l -207.6,-222.5 v -419 l -281.8,-322.5 v -2521.3 h -207.6 v -192.8 h -178 v 1735.2 h -192.8 l -133.5,904.7 h -178 l -133.5,-904.7 h -1384.5 v 2239.5 h -261.7 l -192.8,652.6 v 964 H 24044 v -237.3 h -128.6 l -103.8,1409 h -14.8 -178 -14.8 l -103.8,-1409 h -128.6 v 237.3 H 23248 v -964 l -192.8,-652.6 h -261.7 V 19194.6 H 21409 l -133.5,904.7 h -178 l -133.5,-904.7 h -192.8 v -1735.2 h -311.4 v 978.8 h -652.6 v 682.2 H 18858 v 267 c 0,0 -59.3,1008.5 -860.2,1008.5 h -163.2 l -148.3,445 h -133.4 -103.9 -133.4 l -148.4,-445 h -163.1 c -800.9,0 -860.2,-1008.5 -860.2,-1008.5 v -267 h -949.2 v -682.2 h -652.6 v -978.8 H 14379 v 459.7 h -237.3 v 2417.5 h -267 v 548.8 h -178 v 949.2 c 0,0 -43.5,724.2 -459.7,741.1 v 816.1 h -14.9 -74.1 -14.8 v -816.1 c -416.3,-16.9 -459.8,-741.1 -459.8,-741.1 v -949.2 h -178 v -548.8 h -266.9 v -2417.5 h -118.7 v -355.9 h -163.1 v 875 h -341.2 l -207.6,370.8 H 10864 v -178 h -252.1 l -889.92,548.8 -889.87,-548.8 h -252.13 v 178 h -533.93 l -207.63,-370.8 H 7497.3 v -875 h -457.31 l -109.98,3712.8 133.48,121 v 222.5 h -244.72 v 318.9 l 341.12,400.4 v 155.7 h -341.12 l -111.23,3096.1 h -7.41 -159.44 -7.42 l -111.23,-3096.1 h -341.12 v -155.7 l 341.12,-400.4 v -318.9 H 6177.32 V 21397 l 133.49,-121 -109.98,-3712.8 h -409.12 v 411.5 h -237.3 V 21276 H 3952.65 v 1010.9 H 3263 V 17974.7 H 2899.63 V 17756 h -593.25 v -986.3 h 3870.94 363.37 159.44 363.36 433.81 2224.68 2224.72 281.8 904.7 103.8 904.7 400.4 2906.9 103.9 2906.9 311.4 2847.6 178 2847.6 385.6 1913.2 1913.2 267 2714.1 415.3 2387.8 1053 v 585.8 h -578.4"
         style="fill:#000000;fill-opacity:1;fill-rule:nonzero;stroke:none"
         id="path1735" />
      <path
         d="m 15186.1,15445.1 h -887.8 v 701.4 h -226 v -1707.9 h 226 v 805 h 887.8 v -805 h 226 v 1707.9 h -226 v -701.4"
         style="fill:#000000;fill-opacity:1;fill-rule:nonzero;stroke:none"
         id="path1737" />
      <path
         d="m 16093.6,15139.9 187.6,501 c 39.6,107.9 70.3,216.7 92,326.2 26.4,-92.5 66.8,-210.5 121.2,-354.2 l 178.3,-473 z m 163.1,1006.6 -655.9,-1707.9 h 240 l 187.6,517.2 h 714.2 l 199.2,-517.2 h 257.5 l -699.1,1707.9 h -243.5"
         style="fill:#000000;fill-opacity:1;fill-rule:nonzero;stroke:none"
         id="path1739" />
      <path
         d="m 18289.7,14958.2 c -41.1,-120.4 -71.4,-211.7 -90.8,-273.8 -17.1,55.9 -44.3,140.2 -81.6,252.8 l -404.3,1209.3 h -340.2 v -1707.9 h 217.9 v 1453.9 l 494,-1453.9 h 203.9 l 496.3,1429.5 v -1429.5 h 217.8 v 1707.9 h -304 l -409,-1188.3"
         style="fill:#000000;fill-opacity:1;fill-rule:nonzero;stroke:none"
         id="path1741" />
      <path
         d="m 20379.8,14789.8 c -22.5,-41.5 -51.3,-73.2 -86.2,-94.9 -35,-21.8 -78.5,-37.3 -130.5,-46.6 -29.5,-5.5 -80.8,-8.2 -153.8,-8.2 h -425.2 v 587.2 h 394.9 c 108.8,0 192.1,-9.5 249.9,-28.6 57.9,-19 103.2,-52 135.8,-99 32.6,-47 48.9,-102.3 48.9,-166 0,-54.4 -11.3,-102.3 -33.8,-143.9 z m -795.7,1155.2 h 341.3 c 122.8,0 209.4,-8 259.9,-23.9 50.4,-16 89.3,-45.5 116.5,-88.6 27.1,-43.1 40.7,-93 40.7,-149.7 0,-59.8 -14.5,-109.5 -43.7,-149.1 -29.1,-39.6 -72.4,-68 -129.9,-85 -43.5,-13.3 -115.3,-19.9 -215.5,-19.9 h -369.3 z m 742.1,-597.7 c 80,39.6 139.8,91.6 179.4,156.1 39.7,64.5 59.4,133.2 59.4,206.2 0,78.5 -22.3,153.6 -66.9,225.5 -44.7,71.8 -106.4,125 -185.3,159.6 -78.8,34.5 -183.5,51.8 -314,51.8 h -640.7 v -1707.9 h 651.2 c 108.8,0 200.6,9.5 275.6,28.5 74.9,19 137.2,47.2 187,84.5 49.7,37.3 91.4,90.3 125.2,159 33.8,68.7 50.7,143.1 50.7,223.1 0,99.4 -27.8,185.6 -83.3,258.6 -55.6,73 -135,124.7 -238.3,155"
         style="fill:#000000;fill-opacity:1;fill-rule:nonzero;stroke:none"
         id="path1743" />
      <path
         d="m 22079.6,15160.9 c 0,-214.4 -35.4,-359.2 -106,-434.6 -70.7,-75.3 -189.2,-113 -355.4,-113 -97,0 -179.2,19 -246.4,57.1 -67.2,38.1 -114.5,92.2 -142.1,162.5 -27.6,70.3 -41.4,179.6 -41.4,328 v 985.6 h -226 v -986.8 c 0,-181 21.8,-323.7 65.3,-428.1 43.5,-104.5 116.1,-184.3 217.8,-239.4 101.8,-55.2 232.6,-82.8 392.7,-82.8 164.6,0 297.6,31.7 399,95 101.3,63.3 171.4,145.4 210.3,246.4 38.8,100.9 58.2,237.3 58.2,408.9 v 986.8 h -226 v -985.6"
         style="fill:#000000;fill-opacity:1;fill-rule:nonzero;stroke:none"
         id="path1745" />
      <path
         d="m 23397.2,15392.7 h -485.8 v 565.1 h 540.6 c 126.6,0 219.2,-26.1 277.9,-78.1 58.6,-52 87.9,-118.4 87.9,-199.2 0,-55.2 -15.1,-106.2 -45.4,-153.2 -30.3,-47 -74.6,-81.2 -132.8,-102.5 -58.3,-21.4 -139.1,-32.1 -242.4,-32.1 z m 308.8,-262.1 c -31.1,28 -76.5,56.3 -136.3,85.1 163.8,22.5 285,75.3 363.5,158.4 78.4,83.1 117.6,185.2 117.6,306.4 0,94 -23.7,179.8 -71,257.5 -47.4,77.6 -110.7,131.8 -189.9,162.5 -79.3,30.7 -195,46 -347.2,46 h -757.3 v -1707.9 h 226 v 758.4 h 262.2 c 58.2,0 100.2,-2.7 125.8,-8.2 34.9,-8.5 69.3,-23.7 103.1,-45.4 33.8,-21.7 72,-59.8 114.8,-114.2 42.7,-54.3 97,-132.8 163.1,-235.3 l 226,-355.3 h 284.2 l -297.1,464.8 c -59,90.9 -121.5,166.6 -187.5,227.2"
         style="fill:#000000;fill-opacity:1;fill-rule:nonzero;stroke:none"
         id="path1747" />
      <path
         d="m 25204.2,15308.8 v -200.3 h 502.2 v -318.1 c -48.2,-42.7 -118.9,-82.9 -212.1,-120.6 -93.2,-37.7 -188.7,-56.5 -286.6,-56.5 -112.6,0 -219,24.9 -319.2,74.6 -100.2,49.7 -176.5,125.8 -228.9,228.3 -52.5,102.5 -78.7,229.9 -78.7,382.2 0,123.5 21.8,238 65.3,343.7 25.6,61.3 61.5,117.6 107.7,168.9 46.2,51.2 107,92.6 182.4,124.1 75.3,31.4 164.6,47.1 267.9,47.1 86.2,0 164.7,-14.9 235.4,-44.8 70.6,-29.9 125,-69.7 163.1,-119.4 38,-49.7 69.9,-118.1 95.5,-205.1 l 203.9,55.9 c -29.6,115 -72.7,208.2 -129.3,279.7 -56.8,71.4 -135,127.1 -234.8,167.1 -99.8,40 -211.5,60 -334.9,60 -170.1,0 -320.4,-34.9 -450.9,-104.8 -130.5,-69.9 -230.5,-176.9 -300,-321 -69.5,-144.1 -104.3,-299.2 -104.3,-465.4 0,-167.8 35,-319.6 104.9,-455.5 69.9,-136 173.4,-239.9 310.5,-311.7 137,-71.8 289.5,-107.8 457.2,-107.8 124.3,0 245.5,22.4 363.5,67 118.1,44.7 232.6,111.3 343.7,199.8 v 633.8 l -723.5,-1.2"
         style="fill:#000000;fill-opacity:1;fill-rule:nonzero;stroke:none"
         id="path1749" />
    </g>
  </g>
</svg>
